<svg width="960" height="430" viewBox="0 0 960 430" fill="none" xmlns="http://www.w3.org/2000/svg" role="img" aria-label="Benchmark chart comparing rork-xcode with the @bacons/xcode and xcode packages. Bars show time relative to rork-xcode as the geometric mean over three project documents. Parsing, @bacons/xcode takes 1.3 times as long and xcode 21 times. Building, xcode takes 1.6 times as long and @bacons/xcode 9 times.">
  <defs>
    <pattern id="dots" width="24" height="24" patternUnits="userSpaceOnUse">
      <circle cx="3" cy="3" r="1.6" fill="#d0d7de" />
    </pattern>
    <filter id="cardShadow" x="-8%" y="-8%" width="116%" height="124%">
      <feDropShadow dx="0" dy="10" stdDeviation="14" flood-color="#0d1117" flood-opacity="0.35" />
    </filter>
  </defs>

  <!-- Dotted backdrop -->
  <rect width="960" height="430" rx="12" fill="#f6f8fa" />
  <rect width="960" height="430" rx="12" fill="url(#dots)" />

  <!-- Terminal card -->
  <rect x="40" y="36" width="880" height="358" rx="16" fill="#0d1117" stroke="#30363d" filter="url(#cardShadow)" />

  <g font-family="ui-monospace, SFMono-Regular, Menlo, Consolas, monospace" font-size="13">
    <text x="88" y="78" fill="#e6edf3" font-weight="bold" font-size="15">Time per document, relative to rork-xcode</text>
    <text x="88" y="98" fill="#8b949e">geometric mean over three project documents &#183; shorter is faster</text>

    <!-- Parse -->
    <text x="88" y="130" fill="#8b949e" font-size="11" letter-spacing="2">PARSE</text>
    <g>
      <text x="88" y="158" fill="#e6edf3">rork-xcode</text>
      <rect x="280" y="148" width="16" height="12" rx="2" fill="#3fb950" />
      <text x="306" y="158" fill="#3fb950">1.0&#215;</text>
    </g>
    <g>
      <text x="88" y="182" fill="#e6edf3">@bacons/xcode</text>
      <rect x="280" y="172" width="21" height="12" rx="2" fill="#484f58" />
      <text x="311" y="182" fill="#8b949e">1.3&#215; slower</text>
    </g>
    <g>
      <text x="88" y="206" fill="#e6edf3">xcode</text>
      <rect x="280" y="196" width="340" height="12" rx="2" fill="#484f58" />
      <text x="630" y="206" fill="#8b949e">21&#215; slower</text>
    </g>

    <!-- Build -->
    <text x="88" y="238" fill="#8b949e" font-size="11" letter-spacing="2">BUILD</text>
    <g>
      <text x="88" y="266" fill="#e6edf3">rork-xcode</text>
      <rect x="280" y="256" width="38" height="12" rx="2" fill="#3fb950" />
      <text x="328" y="266" fill="#3fb950">1.0&#215;</text>
    </g>
    <g>
      <text x="88" y="290" fill="#e6edf3">xcode</text>
      <rect x="280" y="280" width="62" height="12" rx="2" fill="#484f58" />
      <text x="352" y="290" fill="#8b949e">1.6&#215; slower</text>
    </g>
    <g>
      <text x="88" y="314" fill="#e6edf3">@bacons/xcode</text>
      <rect x="280" y="304" width="340" height="12" rx="2" fill="#484f58" />
      <text x="630" y="314" fill="#8b949e">9.0&#215; slower</text>
    </g>

    <line x1="64" y1="344" x2="896" y2="344" stroke="#30363d" />
    <text x="88" y="368" fill="#8b949e">Apple M5 Max &#183; Node.js 24 &#183; real and generated Xcode projects &#183; pnpm bench:compare</text>
  </g>
</svg>
